<!-- Generated by IcoMoon.io -->
<svg version="1.1" xmlns="http://www.w3.org/2000/svg" width="32" height="32" viewBox="0 0 32 32">
<path d="M16.809 0.842c0.071 0.033 0.071 0.033 0.143 0.067 0.102 0.048 0.204 0.096 0.306 0.144 0.274 0.13 0.55 0.258 0.825 0.387 0.084 0.039 0.084 0.039 0.17 0.080 0.535 0.25 1.074 0.489 1.614 0.727 0.924 0.408 1.841 0.83 2.757 1.256 0.768 0.357 1.538 0.709 2.312 1.054 0.074 0.033 0.148 0.066 0.224 0.1 0.065 0.029 0.129 0.058 0.196 0.087 0.144 0.069 0.144 0.069 0.207 0.131 0.007 0.086 0.009 0.173 0.010 0.259 0.001 0.084 0.001 0.084 0.002 0.169 0 0.062 0.001 0.123 0.001 0.187 0.001 0.065 0.001 0.129 0.002 0.196 0.002 0.215 0.004 0.429 0.005 0.644 0.001 0.148 0.003 0.297 0.004 0.445 0.003 0.392 0.007 0.783 0.010 1.175 0.003 0.399 0.007 0.798 0.010 1.198 0.007 0.784 0.013 1.568 0.019 2.352 0.043 0.021 0.085 0.042 0.129 0.064 0.196 0.097 0.391 0.194 0.587 0.291 0.1 0.050 0.1 0.050 0.203 0.1 2.369 1.178 4.419 2.971 5.285 5.527 0.48 1.618 0.158 3.27-0.594 4.737-0.997 1.803-2.689 3.096-4.484 4.031-0.079 0.043-0.159 0.085-0.238 0.128-0.515 0.271-1.046 0.495-1.586 0.712-0.068 0.027-0.136 0.055-0.206 0.083-0.281 0.111-0.546 0.213-0.845 0.265-0.080-0.237-0.161-0.474-0.24-0.711-0.027-0.081-0.054-0.161-0.082-0.242-0.039-0.116-0.078-0.232-0.117-0.348-0.024-0.070-0.047-0.139-0.071-0.211-0.052-0.176-0.052-0.176-0.052-0.364 0.046-0.018 0.092-0.036 0.139-0.055 0.866-0.345 1.727-0.688 2.548-1.132 0.038-0.020 0.075-0.040 0.114-0.061 0.54-0.289 1.034-0.618 1.511-1.002 0.053-0.043 0.053-0.043 0.107-0.086 1.056-0.851 2.069-2.016 2.268-3.414 0.090-1.381-0.219-2.543-1.126-3.609-0.041-0.047-0.082-0.093-0.124-0.141-0.039-0.047-0.078-0.095-0.118-0.143-0.827-0.979-1.977-1.599-3.069-2.232 0 1.093 0 2.186 0 3.313-1.165 0.583-1.165 0.583-1.751 0.849-0.043 0.020-0.086 0.039-0.13 0.059s-0.089 0.040-0.134 0.061c-0.095 0.043-0.191 0.087-0.286 0.13-0.706 0.322-1.416 0.637-2.126 0.95-0.786 0.348-1.567 0.706-2.346 1.068-0.109 0.051-0.219 0.102-0.328 0.152-0.451 0.21-0.902 0.42-1.353 0.632-0.123 0.058-0.247 0.115-0.37 0.173-0.053 0.025-0.105 0.050-0.159 0.076-0.048 0.022-0.095 0.044-0.144 0.067-0.039 0.019-0.079 0.037-0.119 0.056-0.392 0.118-0.673-0.017-1.021-0.186-0.050-0.024-0.1-0.047-0.152-0.072-0.108-0.051-0.216-0.102-0.324-0.154-0.29-0.139-0.581-0.275-0.871-0.411-0.089-0.042-0.089-0.042-0.179-0.084-0.544-0.256-1.093-0.5-1.643-0.742-0.922-0.406-1.836-0.827-2.749-1.252-0.768-0.358-1.538-0.709-2.312-1.054-0.111-0.050-0.111-0.050-0.224-0.1-0.065-0.029-0.129-0.058-0.196-0.087-0.144-0.069-0.144-0.069-0.207-0.131-0.006-0.104-0.007-0.207-0.007-0.311 0-0.099 0-0.099 0-0.201 0-0.072 0.001-0.144 0.001-0.219s0-0.147 0-0.223c0-0.236 0.001-0.471 0.002-0.707 0-0.159 0.001-0.319 0.001-0.478 0.001-0.391 0.002-0.783 0.003-1.174-0.211 0.119-0.421 0.238-0.631 0.357-0.059 0.033-0.118 0.067-0.179 0.101-0.447 0.254-0.854 0.526-1.252 0.854-0.035 0.028-0.070 0.056-0.106 0.085-1.057 0.851-2.071 2.016-2.269 3.415-0.101 1.553 0.34 2.724 1.361 3.905 0.397 0.445 0.844 0.809 1.327 1.157 0.037 0.027 0.073 0.053 0.111 0.081 2.495 1.782 6.114 2.98 9.201 2.919-0.058-0.057-0.116-0.115-0.176-0.174-1.073-1.063-1.073-1.063-1.261-1.451 0.172-0.18 0.346-0.359 0.52-0.538 0.059-0.061 0.118-0.122 0.177-0.183 0.084-0.088 0.17-0.175 0.255-0.262 0.051-0.053 0.102-0.105 0.155-0.16 0.143-0.108 0.143-0.108 0.273-0.106 0.143 0.072 0.236 0.154 0.348 0.268 0.042 0.043 0.085 0.085 0.128 0.129s0.087 0.090 0.132 0.136c0.043 0.043 0.086 0.086 0.13 0.131 0.204 0.207 0.401 0.416 0.589 0.636 0.288 0.333 0.604 0.639 0.917 0.948 0.356 0.351 0.709 0.7 1.032 1.081 0.147 0.17 0.307 0.325 0.468 0.482-0.089 0.203-0.195 0.332-0.355 0.484-0.164 0.156-0.315 0.317-0.462 0.489-0.321 0.37-0.675 0.71-1.023 1.054-0.323 0.318-0.639 0.638-0.934 0.983-0.166 0.192-0.34 0.375-0.517 0.556-0.035 0.037-0.069 0.074-0.105 0.112-0.103 0.105-0.103 0.105-0.289 0.259-0.246-0.010-0.369-0.159-0.534-0.328-0.053-0.053-0.106-0.107-0.16-0.162-0.055-0.056-0.109-0.112-0.165-0.17-0.056-0.056-0.111-0.113-0.168-0.171-0.137-0.139-0.274-0.279-0.41-0.419 0.095-0.201 0.194-0.33 0.355-0.484 0.211-0.206 0.408-0.418 0.598-0.643 0.134-0.151 0.278-0.292 0.421-0.435-0.112-0.014-0.112-0.014-0.226-0.028-2.871-0.365-2.871-0.365-4.212-0.722-0.069-0.018-0.137-0.036-0.208-0.055-1.355-0.366-2.682-0.84-3.921-1.505-0.129-0.069-0.26-0.137-0.39-0.204-2.079-1.094-4.008-2.835-4.757-5.118-0.506-1.725-0.243-3.386 0.571-4.95 0.564-1.009 1.405-1.928 2.326-2.625 0.046-0.035 0.093-0.070 0.141-0.106 0.971-0.725 2.032-1.271 3.113-1.812 0.021-2.186 0.041-4.372 0.063-6.625 0.584-0.292 1.16-0.579 1.758-0.839 0.93-0.406 1.854-0.826 2.774-1.255 0.916-0.427 1.836-0.845 2.761-1.252 0.402-0.177 0.804-0.355 1.201-0.545 0.064-0.030 0.127-0.060 0.193-0.091 0.114-0.054 0.227-0.109 0.339-0.165 0.073-0.035 0.073-0.035 0.148-0.070 0.041-0.020 0.082-0.040 0.124-0.061 0.386-0.095 0.734 0.082 1.075 0.245zM15.396 2.898c-0.048 0.022-0.095 0.045-0.144 0.067-0.103 0.048-0.206 0.097-0.309 0.145-0.275 0.13-0.551 0.258-0.828 0.387-0.085 0.039-0.085 0.039-0.171 0.080-0.563 0.262-1.13 0.515-1.698 0.766-0.184 0.081-0.368 0.163-0.552 0.244-0.043 0.019-0.087 0.038-0.132 0.058-0.585 0.259-1.168 0.525-1.75 0.791 0.165 0.2 0.375 0.284 0.608 0.383 0.043 0.019 0.085 0.037 0.129 0.057 0.093 0.041 0.186 0.081 0.28 0.122 0.254 0.11 0.507 0.222 0.76 0.333 0.053 0.024 0.107 0.047 0.162 0.071 0.778 0.344 1.548 0.705 2.318 1.065 0.149 0.069 0.299 0.138 0.448 0.207 0.202 0.093 0.402 0.19 0.6 0.29 0.099 0.048 0.198 0.096 0.297 0.144 0.066 0.035 0.066 0.035 0.134 0.070 0.249 0.118 0.402 0.151 0.668 0.067 0.095-0.039 0.189-0.079 0.282-0.122 0.044-0.019 0.087-0.037 0.132-0.057 0.136-0.060 0.27-0.122 0.404-0.186 0.050-0.023 0.1-0.047 0.152-0.071 0.107-0.050 0.214-0.1 0.321-0.151 0.285-0.134 0.571-0.267 0.857-0.4 0.058-0.027 0.116-0.054 0.176-0.082 0.671-0.311 1.346-0.61 2.024-0.907 0.549-0.241 1.088-0.497 1.622-0.771-0.219-0.146-0.449-0.252-0.687-0.362-0.051-0.023-0.101-0.047-0.153-0.071-0.166-0.077-0.333-0.154-0.499-0.231-0.057-0.026-0.114-0.053-0.173-0.080-0.904-0.418-1.812-0.828-2.724-1.229-0.086-0.038-0.172-0.076-0.258-0.114-0.041-0.018-0.082-0.036-0.125-0.055-0.226-0.1-0.45-0.203-0.673-0.311-0.048-0.023-0.096-0.046-0.146-0.070-0.093-0.045-0.185-0.090-0.278-0.136-0.431-0.208-0.663-0.141-1.076 0.056zM8.375 7c0 2.887 0 5.775 0 8.75 0.679 0.342 0.679 0.342 1.367 0.659 0.087 0.038 0.174 0.077 0.261 0.115 0.045 0.020 0.089 0.039 0.135 0.059 0.992 0.435 1.977 0.884 2.959 1.341 0.466 0.217 0.934 0.432 1.404 0.639 0.042 0.019 0.085 0.038 0.128 0.057 0.209 0.097 0.209 0.097 0.433 0.129 0-2.887 0-5.775 0-8.75-1.38-0.637-2.758-1.27-4.148-1.884-0.621-0.276-1.237-0.564-1.851-0.856-0.073-0.034-0.145-0.069-0.22-0.104-0.095-0.045-0.095-0.045-0.193-0.092-0.142-0.073-0.142-0.073-0.276-0.064zM23.154 7.177c-0.043 0.019-0.086 0.038-0.13 0.057-0.144 0.064-0.287 0.127-0.431 0.191-0.050 0.022-0.099 0.044-0.15 0.067-0.917 0.408-1.828 0.827-2.737 1.252-0.919 0.429-1.843 0.841-2.769 1.256 0 2.887 0 5.775 0 8.75 0.364-0.121 0.701-0.241 1.044-0.403 0.044-0.021 0.089-0.041 0.135-0.062 0.095-0.044 0.191-0.089 0.286-0.133 0.257-0.12 0.514-0.239 0.772-0.358 0.079-0.037 0.079-0.037 0.16-0.074 0.549-0.253 1.101-0.499 1.654-0.743 0.655-0.29 1.309-0.581 1.961-0.879 0.062-0.028 0.125-0.057 0.189-0.086 0.056-0.026 0.112-0.051 0.169-0.078 0.048-0.022 0.096-0.044 0.146-0.067 0.108-0.047 0.108-0.047 0.172-0.117 0.006-0.113 0.008-0.226 0.008-0.34 0-0.074 0-0.147 0-0.223-0-0.082-0-0.163-0.001-0.247-0-0.086 0-0.172 0-0.259 0-0.235-0-0.47-0.001-0.704-0-0.245-0-0.49-0-0.735-0-0.464-0.001-0.929-0.001-1.393-0.001-0.529-0.001-1.057-0.001-1.586-0.001-1.088-0.002-2.175-0.003-3.263-0.156 0-0.328 0.114-0.471 0.177z"></path>
</svg>
