<!-- Generated by IcoMoon.io -->
<svg version="1.1" xmlns="http://www.w3.org/2000/svg" width="32" height="32" viewBox="0 0 32 32">
<path d="M25 7.938c0.147 0.109 0.147 0.109 0.294 0.248 0.054 0.051 0.109 0.102 0.165 0.154 0.082 0.080 0.082 0.080 0.167 0.161 0.051 0.049 0.102 0.099 0.155 0.15 0.159 0.155 0.316 0.312 0.473 0.468 0.057 0.057 0.114 0.113 0.173 0.172 0.119 0.119 0.238 0.238 0.357 0.357 0.152 0.152 0.304 0.303 0.457 0.455 0.147 0.146 0.293 0.292 0.439 0.438 0.055 0.054 0.109 0.108 0.165 0.164 0.051 0.051 0.101 0.101 0.153 0.154 0.044 0.044 0.089 0.088 0.134 0.134 0.264 0.299 0.344 0.526 0.332 0.918-0.044 0.256-0.145 0.356-0.339 0.528-0.232 0.148-0.458 0.148-0.723 0.107-0.17-0.050-0.25-0.108-0.379-0.226-0.043-0.039-0.086-0.079-0.13-0.119-0.27-0.259-0.535-0.523-0.799-0.788-0.086-0.086-0.086-0.086-0.174-0.175-0.14-0.141-0.28-0.282-0.42-0.423-0.001 0.052-0.002 0.105-0.004 0.159-0.053 2.145-0.151 3.986-1.559 5.716-0.073 0.099-0.073 0.099-0.148 0.199-1.133 1.214-2.71 1.89-4.352 2.001-0.564 0.010-0.564 0.010-0.812-0.2-0.070-0.050-0.070-0.050-0.141-0.102-0.164-0.223-0.192-0.437-0.172-0.711 0.094-0.273 0.25-0.481 0.5-0.625 0.173-0.026 0.338-0.043 0.512-0.055 1.37-0.127 2.54-0.659 3.431-1.727 0.797-1.086 0.972-2.158 0.948-3.465-0.001-0.116-0.002-0.232-0.003-0.348-0.003-0.281-0.007-0.562-0.012-0.843-0.048 0.049-0.095 0.097-0.144 0.147-0.177 0.181-0.355 0.36-0.533 0.54-0.077 0.078-0.154 0.156-0.23 0.234-0.11 0.112-0.221 0.224-0.332 0.336-0.034 0.035-0.068 0.070-0.103 0.106-0.232 0.232-0.42 0.371-0.75 0.401-0.288-0.019-0.489-0.050-0.698-0.26-0.169-0.233-0.189-0.439-0.186-0.721 0.082-0.346 0.341-0.602 0.585-0.848 0.029-0.029 0.057-0.058 0.087-0.088 0.094-0.095 0.188-0.189 0.283-0.283 0.066-0.066 0.132-0.133 0.198-0.199 0.138-0.138 0.276-0.277 0.415-0.415 0.177-0.176 0.353-0.354 0.529-0.531 0.136-0.137 0.272-0.273 0.409-0.41 0.065-0.065 0.13-0.13 0.195-0.196 0.091-0.092 0.182-0.182 0.274-0.273 0.078-0.078 0.078-0.078 0.157-0.157 0.372-0.317 0.695-0.403 1.157-0.259z"></path>
<path d="M26.27 0.43c0.055 0.044 0.111 0.088 0.168 0.133 0.040 0.031 0.079 0.061 0.12 0.093 0.62 0.506 1.027 1.237 1.13 2.032 0.075 0.943-0.192 1.764-0.801 2.488-0.249 0.263-0.505 0.465-0.824 0.637-0.056 0.030-0.112 0.061-0.17 0.092-0.729 0.337-1.643 0.361-2.4 0.095-0.858-0.396-1.469-0.991-1.807-1.878-0.285-0.874-0.218-1.654 0.152-2.496 0.403-0.761 1.052-1.284 1.857-1.571 0.922-0.21 1.758-0.088 2.575 0.374zM23.375 2.25c-0.228 0.375-0.239 0.76-0.188 1.188 0.131 0.427 0.406 0.732 0.789 0.957 0.37 0.17 0.744 0.173 1.131 0.053 0.379-0.168 0.646-0.385 0.83-0.76 0.141-0.405 0.157-0.761 0.011-1.165-0.192-0.385-0.479-0.686-0.875-0.858-0.682-0.195-1.271 0.046-1.698 0.586z"></path>
<path d="M8.221 26.276c0.681 0.424 1.153 1.034 1.4 1.802 0.201 0.87 0.080 1.719-0.352 2.5-0.425 0.655-1.057 1.19-1.822 1.392-0.95 0.142-1.847 0.070-2.642-0.507-0.039-0.029-0.078-0.059-0.118-0.089-0.054-0.036-0.108-0.072-0.164-0.109-0.553-0.524-0.944-1.237-0.979-2-0.027-1.058 0.198-1.758 0.893-2.578 1.062-0.964 2.549-1.102 3.784-0.411zM5.438 28.063c-0.24 0.369-0.326 0.753-0.25 1.188 0.143 0.43 0.367 0.755 0.75 1 0.365 0.179 0.78 0.195 1.166 0.073 0.46-0.206 0.712-0.494 0.92-0.948 0.102-0.49 0.043-0.886-0.225-1.307-0.264-0.345-0.59-0.531-1.021-0.589-0.544-0.020-0.981 0.177-1.34 0.584z"></path>
<path d="M13.55 24.641c0.359 0.326 0.703 0.666 1.044 1.011 0.057 0.058 0.115 0.115 0.174 0.175 0.14 0.141 0.28 0.282 0.42 0.423 0.244-0.099 0.392-0.257 0.573-0.445 0.063-0.064 0.125-0.129 0.188-0.193 0.098-0.101 0.195-0.202 0.292-0.303 0.094-0.098 0.19-0.196 0.285-0.293 0.056-0.058 0.113-0.117 0.171-0.177 0.226-0.192 0.453-0.321 0.754-0.354 0.332 0.045 0.502 0.15 0.736 0.391 0.056 0.168 0.076 0.283 0.082 0.457 0.003 0.069 0.003 0.069 0.007 0.14-0.064 0.369-0.371 0.64-0.629 0.893-0.033 0.033-0.066 0.066-0.1 0.099-0.104 0.103-0.209 0.206-0.313 0.309-0.071 0.071-0.142 0.141-0.213 0.212-0.173 0.172-0.347 0.344-0.521 0.515 0.366 0.444 0.776 0.841 1.188 1.243 0.054 0.054 0.109 0.107 0.165 0.162 0.049 0.048 0.099 0.097 0.149 0.146 0.245 0.272 0.28 0.498 0.272 0.856-0.040 0.261-0.137 0.357-0.336 0.53-0.24 0.123-0.471 0.161-0.74 0.114-0.312-0.118-0.53-0.381-0.76-0.614-0.097-0.096-0.193-0.192-0.29-0.288-0.28-0.278-0.558-0.557-0.835-0.837-0.244 0.099-0.392 0.257-0.573 0.445-0.063 0.064-0.125 0.129-0.188 0.193-0.098 0.101-0.195 0.202-0.292 0.303-0.094 0.098-0.19 0.196-0.285 0.293-0.056 0.058-0.113 0.117-0.171 0.177-0.226 0.192-0.453 0.321-0.754 0.354-0.332-0.045-0.502-0.15-0.736-0.391-0.056-0.168-0.076-0.283-0.082-0.457-0.002-0.046-0.005-0.092-0.007-0.14 0.064-0.369 0.371-0.639 0.629-0.893 0.033-0.033 0.066-0.066 0.1-0.099 0.104-0.103 0.209-0.206 0.313-0.309 0.071-0.071 0.142-0.141 0.213-0.212 0.173-0.172 0.347-0.344 0.521-0.515-0.366-0.444-0.776-0.841-1.188-1.243-0.054-0.054-0.109-0.107-0.165-0.162-0.049-0.048-0.099-0.097-0.149-0.146-0.237-0.262-0.272-0.468-0.264-0.812 0.029-0.252 0.141-0.393 0.324-0.558 0.307-0.186 0.689-0.212 0.991 0.001z"></path>
<path d="M10.625 7.813c0.471 0.27 0.842 0.702 1.219 1.086 0.064 0.065 0.128 0.129 0.192 0.194 0.155 0.156 0.31 0.313 0.464 0.47 0.428-0.352 0.812-0.746 1.199-1.143 0.087-0.089 0.174-0.177 0.261-0.265 0.077-0.078 0.077-0.078 0.155-0.158 0.227-0.205 0.45-0.205 0.742-0.202 0.22 0.028 0.352 0.126 0.518 0.268 0.176 0.264 0.207 0.455 0.15 0.768-0.107 0.285-0.252 0.436-0.469 0.644-0.037 0.037-0.075 0.074-0.113 0.112-0.118 0.117-0.238 0.232-0.357 0.348-0.081 0.079-0.162 0.159-0.242 0.238-0.197 0.194-0.395 0.386-0.594 0.579 0.213 0.253 0.428 0.498 0.665 0.729 0.052 0.051 0.103 0.101 0.156 0.154 0.107 0.105 0.214 0.209 0.321 0.314 0.051 0.051 0.103 0.101 0.155 0.153 0.046 0.045 0.093 0.091 0.141 0.137 0.229 0.253 0.354 0.482 0.374 0.825-0.039 0.277-0.102 0.445-0.316 0.621-0.22 0.138-0.408 0.164-0.664 0.164-0.363-0.089-0.63-0.378-0.884-0.638-0.033-0.033-0.066-0.066-0.099-0.1-0.103-0.104-0.206-0.209-0.309-0.313-0.071-0.071-0.141-0.142-0.212-0.213-0.172-0.173-0.344-0.347-0.515-0.521-0.248 0.1-0.413 0.273-0.596 0.461-0.033 0.033-0.065 0.066-0.098 0.099-0.103 0.105-0.207 0.21-0.309 0.315s-0.207 0.21-0.31 0.315c-0.064 0.065-0.128 0.13-0.192 0.196-0.349 0.354-0.349 0.354-0.575 0.383-0.564 0.003-0.564 0.003-0.793-0.206-0.166-0.246-0.209-0.453-0.219-0.742 0.083-0.357 0.379-0.624 0.634-0.873 0.033-0.033 0.066-0.066 0.1-0.099 0.104-0.103 0.209-0.206 0.313-0.309 0.071-0.071 0.142-0.141 0.213-0.212 0.173-0.172 0.347-0.344 0.521-0.515-0.099-0.248-0.272-0.41-0.461-0.592-0.067-0.066-0.135-0.132-0.202-0.198-0.106-0.103-0.212-0.206-0.318-0.309-0.103-0.1-0.205-0.2-0.307-0.301-0.032-0.030-0.064-0.061-0.096-0.092-0.25-0.246-0.353-0.437-0.384-0.785 0.027-0.308 0.105-0.505 0.336-0.715 0.27-0.103 0.526-0.14 0.809-0.070z"></path>
<path d="M22.93 20.574c0.114 0.1 0.217 0.205 0.32 0.315 0.038 0.039 0.076 0.078 0.115 0.117 0.12 0.123 0.239 0.248 0.357 0.373 0.082 0.084 0.163 0.168 0.245 0.252 0.2 0.205 0.398 0.412 0.595 0.619 0.264-0.221 0.516-0.447 0.756-0.694 0.056-0.057 0.113-0.115 0.171-0.174 0.088-0.090 0.175-0.179 0.262-0.27 0.086-0.088 0.172-0.176 0.258-0.263 0.076-0.078 0.076-0.078 0.153-0.157 0.189-0.163 0.354-0.248 0.604-0.261 0.312 0.034 0.511 0.078 0.732 0.32 0.146 0.233 0.148 0.458 0.107 0.723-0.152 0.521-0.79 0.968-1.165 1.339-0.061 0.061-0.122 0.122-0.184 0.183-0.148 0.148-0.297 0.295-0.445 0.442 0.222 0.273 0.456 0.519 0.71 0.761 0.061 0.059 0.122 0.117 0.183 0.176 0.094 0.090 0.189 0.18 0.285 0.269 0.603 0.561 0.603 0.561 0.649 0.915 0.004 0.271-0.063 0.459-0.202 0.69-0.23 0.192-0.453 0.24-0.75 0.25-0.359-0.121-0.575-0.291-0.836-0.561-0.035-0.036-0.071-0.072-0.107-0.108-0.112-0.113-0.223-0.228-0.334-0.342-0.076-0.078-0.153-0.155-0.229-0.232-0.186-0.189-0.371-0.378-0.556-0.568-0.441 0.363-0.831 0.77-1.226 1.183-0.61 0.622-0.61 0.622-1.054 0.634-0.242-0.057-0.423-0.112-0.595-0.297-0.141-0.234-0.188-0.372-0.188-0.645 0.122-0.359 0.291-0.575 0.561-0.836 0.036-0.035 0.072-0.071 0.108-0.107 0.113-0.112 0.228-0.223 0.342-0.334 0.078-0.076 0.155-0.153 0.232-0.229 0.189-0.186 0.378-0.371 0.568-0.556-0.349-0.426-0.741-0.804-1.138-1.185-0.088-0.085-0.176-0.171-0.263-0.257-0.078-0.075-0.078-0.075-0.157-0.152-0.168-0.204-0.245-0.402-0.263-0.666 0.027-0.239 0.059-0.349 0.213-0.545 0.349-0.27 0.765-0.372 1.164-0.122z"></path>
<path d="M7.875 19.75c0.248 0.148 0.366 0.282 0.438 0.563 0.028 0.315 0.003 0.496-0.188 0.75-0.149 0.174-0.271 0.234-0.501 0.269-0.29 0.017-0.459-0.005-0.687-0.195-0.207-0.194-0.246-0.338-0.27-0.625 0.005-0.275 0.085-0.428 0.27-0.637 0.307-0.222 0.583-0.221 0.938-0.125z"></path>
<path d="M9.898 17.707c0.072 0.007 0.072 0.007 0.146 0.015 0.266 0.052 0.372 0.126 0.538 0.344 0.122 0.232 0.128 0.418 0.086 0.674-0.072 0.226-0.184 0.346-0.355 0.51-0.254 0.085-0.484 0.096-0.75 0.063-0.238-0.125-0.351-0.214-0.5-0.438-0.084-0.306-0.060-0.52 0.063-0.813 0.231-0.251 0.432-0.393 0.773-0.355z"></path>
<path d="M16.313 17.25c0.238 0.125 0.351 0.214 0.5 0.438 0.088 0.354 0.050 0.556-0.125 0.875-0.147 0.175-0.22 0.24-0.438 0.313-0.326 0.025-0.543 0.004-0.813-0.188-0.179-0.234-0.273-0.465-0.254-0.762 0.156-0.558 0.591-0.752 1.129-0.676z"></path>
<path d="M13.188 17.25c0.252 0.117 0.352 0.214 0.5 0.449 0.079 0.302 0.057 0.514-0.063 0.801-0.162 0.2-0.256 0.294-0.5 0.375-0.327 0.025-0.537-0.006-0.813-0.188-0.17-0.217-0.233-0.413-0.25-0.688 0.064-0.316 0.197-0.477 0.438-0.688 0.217-0.109 0.45-0.091 0.688-0.063z"></path>
<path d="M7 22.688c0.226 0.177 0.372 0.343 0.438 0.625-0.005 0.307-0.031 0.448-0.191 0.711-0.22 0.196-0.388 0.282-0.684 0.289-0.293-0.088-0.494-0.2-0.688-0.438-0.11-0.329-0.111-0.585 0.035-0.895 0.301-0.332 0.668-0.439 1.090-0.293z"></path>
</svg>
